<svg xmlns="http://www.w3.org/2000/svg" viewBox="0 0 1200 900" role="img" aria-label="Ziola w doniczkach">
  <rect width="1200" height="900" fill="#e7f1dd"/>
  <rect x="90" y="610" width="1020" height="130" rx="18" fill="#9a6b45"/>
  <rect x="170" y="510" width="190" height="210" rx="24" fill="#c57f45"/>
  <rect x="505" y="485" width="190" height="235" rx="24" fill="#d39a5f"/>
  <rect x="840" y="525" width="190" height="195" rx="24" fill="#b86d3b"/>
  <g fill="none" stroke="#1f7a4d" stroke-linecap="round" stroke-width="18">
    <path d="M265 520c-8-95 8-178 55-250"/>
    <path d="M585 490c-28-110-10-205 60-285"/>
    <path d="M935 530c-10-105 22-180 82-250"/>
  </g>
  <g fill="#2f9b5d">
    <ellipse cx="236" cy="365" rx="72" ry="34" transform="rotate(-31 236 365)"/>
    <ellipse cx="329" cy="333" rx="72" ry="34" transform="rotate(29 329 333)"/>
    <ellipse cx="258" cy="278" rx="58" ry="28" transform="rotate(-22 258 278)"/>
    <ellipse cx="553" cy="330" rx="86" ry="38" transform="rotate(-36 553 330)"/>
    <ellipse cx="666" cy="295" rx="82" ry="36" transform="rotate(28 666 295)"/>
    <ellipse cx="609" cy="222" rx="66" ry="30" transform="rotate(-12 609 222)"/>
    <ellipse cx="906" cy="390" rx="76" ry="34" transform="rotate(-34 906 390)"/>
    <ellipse cx="1014" cy="358" rx="72" ry="33" transform="rotate(30 1014 358)"/>
    <ellipse cx="958" cy="288" rx="62" ry="29" transform="rotate(-18 958 288)"/>
  </g>
  <circle cx="1030" cy="130" r="70" fill="#f4c95d"/>
  <text x="90" y="840" fill="#173f2d" font-family="Arial, sans-serif" font-size="54" font-weight="700">Ogrodio Sklep</text>
</svg>
